<svg xmlns="http://www.w3.org/2000/svg" width="20" height="20" viewBox="0 0 20 20" fill="none">
    <path fill-rule="evenodd" clip-rule="evenodd" d="M3.09956 16.9004C3.34364 17.1445 3.73937 17.1445 3.98345 16.9004L9.99984 10.884L16.0162 16.9004C16.2603 17.1445 16.656 17.1445 16.9001 16.9004C17.1442 16.6564 17.1442 16.2606 16.9001 16.0166L10.8837 10.0002L16.9001 3.98377C17.1442 3.73969 17.1442 3.34396 16.9001 3.09989C16.656 2.85581 16.2603 2.85581 16.0162 3.09989L9.99984 9.11628L3.98345 3.09989C3.73937 2.85581 3.34364 2.85581 3.09956 3.09989C2.85548 3.34396 2.85548 3.73969 3.09956 3.98377L9.11595 10.0002L3.09956 16.0166C2.85548 16.2606 2.85548 16.6564 3.09956 16.9004Z" fill="#141414"/>
</svg>