<svg width="32" height="32" viewBox="0 0 32 32" fill="none" xmlns="http://www.w3.org/2000/svg">
<path d="M16 21C16.2833 21 16.521 20.904 16.713 20.712C16.9043 20.5207 17 20.2833 17 20V17H20.025C20.3083 17 20.5417 16.904 20.725 16.712C20.9083 16.5207 21 16.2833 21 16C21 15.7167 20.904 15.479 20.712 15.287C20.5207 15.0957 20.2833 15 20 15H17V11.975C17 11.6917 16.9043 11.4583 16.713 11.275C16.521 11.0917 16.2833 11 16 11C15.7167 11 15.4793 11.0957 15.288 11.287C15.096 11.479 15 11.7167 15 12V15H11.975C11.6917 15 11.4583 15.0957 11.275 15.287C11.0917 15.479 11 15.7167 11 16C11 16.2833 11.0957 16.5207 11.287 16.712C11.479 16.904 11.7167 17 12 17H15V20.025C15 20.3083 15.096 20.5417 15.288 20.725C15.4793 20.9083 15.7167 21 16 21ZM16 26C14.6167 26 13.3167 25.7373 12.1 25.212C10.8833 24.6873 9.825 23.975 8.925 23.075C8.025 22.175 7.31267 21.1167 6.788 19.9C6.26267 18.6833 6 17.3833 6 16C6 14.6167 6.26267 13.3167 6.788 12.1C7.31267 10.8833 8.025 9.825 8.925 8.925C9.825 8.025 10.8833 7.31233 12.1 6.787C13.3167 6.26233 14.6167 6 16 6C17.3833 6 18.6833 6.26233 19.9 6.787C21.1167 7.31233 22.175 8.025 23.075 8.925C23.975 9.825 24.6873 10.8833 25.212 12.1C25.7373 13.3167 26 14.6167 26 16C26 17.3833 25.7373 18.6833 25.212 19.9C24.6873 21.1167 23.975 22.175 23.075 23.075C22.175 23.975 21.1167 24.6873 19.9 25.212C18.6833 25.7373 17.3833 26 16 26Z" fill="#7C7C7C"/>
</svg>
