<svg width="32" height="32" viewBox="0 0 32 32" fill="none" xmlns="http://www.w3.org/2000/svg">
<path d="M8.5 27C7.8125 27 7.22417 26.754 6.735 26.2621C6.245 25.7693 6 25.1771 6 24.4857V13.1714C6 12.7733 6.08875 12.3962 6.26625 12.04C6.44292 11.6838 6.6875 11.3905 7 11.16L14.5 5.50286C14.7292 5.33524 14.9688 5.20952 15.2188 5.12571C15.4688 5.0419 15.7292 5 16 5C16.2708 5 16.5312 5.0419 16.7812 5.12571C17.0312 5.20952 17.2708 5.33524 17.5 5.50286L25 11.16C25.3125 11.3905 25.5575 11.6838 25.735 12.04C25.9117 12.3962 26 12.7733 26 13.1714V24.4857C26 25.1771 25.7554 25.7693 25.2663 26.2621C24.7763 26.754 24.1875 27 23.5 27H18.5V18.2H13.5V27H8.5Z" fill="#7C7C7C"/>
</svg>
