<svg width="110" height="44" viewBox="0 0 110 44" fill="none" xmlns="http://www.w3.org/2000/svg">
<rect x="0.956522" y="3.82615" width="36.3478" height="36.3478" rx="6.69565" stroke="#005A37" stroke-width="1.91304"/>
<path d="M7.01452 33.1594C7.01452 33.1594 5.89858 12.116 19.1305 12.116C32.3623 12.116 31.2464 33.1594 31.2464 33.1594" stroke="#005A37" stroke-width="1.91304" stroke-linecap="round" stroke-linejoin="round"/>
<ellipse cx="15.3043" cy="22.0001" rx="1.14783" ry="1.72174" fill="#7C7C7C"/>
<ellipse cx="22.9565" cy="22.0001" rx="1.14783" ry="1.72174" fill="#7C7C7C"/>
<path d="M15.687 27.1653C15.687 27.1653 17.2378 28.6001 19.4276 28.6001C21.6174 28.6001 23.0203 27.1653 23.0203 27.1653" stroke="#7C7C7C" stroke-width="1.53043" stroke-linecap="round" stroke-linejoin="round"/>
<path d="M72.1352 21.5527V37.3876H69.9314V6.04429H72.1352V19.3897H76.6653V21.5527H72.1352ZM63.4423 7.39107V35.3062H47.2809V7.39107H63.4423ZM61.2385 33.1432V9.55409H49.4847V33.1432H61.2385ZM102.74 21.4711V6.04429H104.943V21.4711H102.74ZM87.925 14.3699C86.8911 16.0567 85.5307 17.4579 83.8438 18.5734C82.1569 19.689 80.2388 20.4508 78.0894 20.8589V18.7367C80.0755 18.3014 81.8032 17.4851 83.2724 16.288C84.7689 15.0909 85.898 13.6352 86.6598 11.9212C87.4488 10.1799 87.8569 8.34334 87.8842 6.41159L90.0472 6.53403C90.0472 8.73786 89.6663 10.7376 88.9044 12.5333L98.9849 18.4918L97.883 20.3283L87.925 14.3699ZM105.882 36.7754H80.3748V29.2661H102.699V25.4298H80.2932V23.5117H104.943V31.021H82.5786V34.8981H105.882V36.7754Z" fill="#005A37"/>
</svg>
