<svg width="32" height="32" viewBox="0 0 32 32" fill="none" xmlns="http://www.w3.org/2000/svg">
<path d="M16 16C14.625 16 13.4479 15.5104 12.4688 14.5312C11.4896 13.5521 11 12.375 11 11C11 9.625 11.4896 8.44792 12.4688 7.46875C13.4479 6.48958 14.625 6 16 6C17.375 6 18.5521 6.48958 19.5312 7.46875C20.5104 8.44792 21 9.625 21 11C21 12.375 20.5104 13.5521 19.5312 14.5312C18.5521 15.5104 17.375 16 16 16ZM8.5 26C7.8125 26 7.22417 25.7554 6.735 25.2663C6.245 24.7763 6 24.1875 6 23.5V22.5C6 21.7917 6.1825 21.1404 6.5475 20.5463C6.91167 19.9529 7.39583 19.5 8 19.1875C9.29167 18.5417 10.6042 18.0571 11.9375 17.7338C13.2708 17.4113 14.625 17.25 16 17.25C17.375 17.25 18.7292 17.4113 20.0625 17.7338C21.3958 18.0571 22.7083 18.5417 24 19.1875C24.6042 19.5 25.0883 19.9529 25.4525 20.5463C25.8175 21.1404 26 21.7917 26 22.5V23.5C26 24.1875 25.7554 24.7763 25.2663 25.2663C24.7763 25.7554 24.1875 26 23.5 26H8.5Z" fill="#7C7C7C"/>
</svg>
