<svg width="32" height="32" viewBox="0 0 32 32" fill="none" xmlns="http://www.w3.org/2000/svg">
<path d="M24.0368 25.5663L17.9191 19.4485C17.3728 19.8855 16.7447 20.2314 16.0346 20.4863C15.3245 20.7412 14.5688 20.8687 13.7677 20.8687C11.7831 20.8687 10.1036 20.1815 8.72926 18.8072C7.35421 17.4321 6.66669 15.7523 6.66669 13.7677C6.66669 11.783 7.35421 10.1032 8.72926 8.72813C10.1036 7.35382 11.7831 6.66666 13.7677 6.66666C15.7523 6.66666 17.4322 7.35382 18.8072 8.72813C20.1815 10.1032 20.8687 11.783 20.8687 13.7677C20.8687 14.5688 20.7412 15.3244 20.4863 16.0345C20.2314 16.7446 19.8855 17.3728 19.4485 17.919L25.5936 24.0641C25.7939 24.2644 25.894 24.5102 25.894 24.8015C25.894 25.0929 25.7848 25.3478 25.5663 25.5663C25.366 25.7665 25.1111 25.8667 24.8016 25.8667C24.492 25.8667 24.2371 25.7665 24.0368 25.5663ZM13.7677 18.6837C15.1333 18.6837 16.2942 18.206 17.2505 17.2504C18.206 16.2942 18.6838 15.1332 18.6838 13.7677C18.6838 12.4021 18.206 11.2412 17.2505 10.2849C16.2942 9.32935 15.1333 8.85158 13.7677 8.85158C12.4021 8.85158 11.2412 9.32935 10.2849 10.2849C9.32938 11.2412 8.85161 12.4021 8.85161 13.7677C8.85161 15.1332 9.32938 16.2942 10.2849 17.2504C11.2412 18.206 12.4021 18.6837 13.7677 18.6837Z" fill="#005A37"/>
</svg>
